<?xml version="1.0" encoding="UTF-8" standalone="no"?>
<svg xmlns="http://www.w3.org/2000/svg" viewBox="0 0 16 16">
  <path
    style="fill:#4d4d4d;fill-opacity:1;stroke:none"
    d="M 7.5 2 A 4.5 4.5 0 0 0 3 6.5 A 4.5 4.5 0 0 0 3.0527344 7.15625 A 3 3 0 0 0 1 10 A 3 3 0 0 0 4 13 L 11.5 13 A 3.5 3.5 0 0 0 15 9.5 A 3.5 3.5 0 0 0 11.970703 6.0351562 A 4.5 4.5 0 0 0 7.5 2 z M 7.5 3 A 3.5 3.5 0 0 1 11 6.5 A 3.5 3.5 0 0 1 10.949219 7.0644531 A 2.5 2.5 0 0 1 11.5 7 A 2.5 2.5 0 0 1 14 9.5 A 2.5 2.5 0 0 1 11.5 12 L 4 12 A 2 2 0 0 1 2 10 A 2 2 0 0 1 4 8 A 2 2 0 0 1 4.3574219 8.0332031 A 3.5 3.5 0 0 1 4 6.5 A 3.5 3.5 0 0 1 7.5 3 z" />
  <circle
    style="fill:#3daee9;fill-opacity:1;stroke:none;stroke-width:1.34194827;stroke-miterlimit:4;stroke-dasharray:none;stroke-opacity:0.55612242"
    cx="10.305083"
    cy="10.372882"
    r="5.0493646" />
  <rect
    style="fill:#ffffff;fill-opacity:1;stroke:none;stroke-width:1.08444154;stroke-miterlimit:4;stroke-dasharray:none;stroke-opacity:0.55612242"
    width="3"
    height="3"
    x="8.3898306"
    y="11.305084" />
  <rect
    style="fill:#ffffff;fill-opacity:1;stroke:none;stroke-width:0.96501118;stroke-miterlimit:4;stroke-dasharray:none;stroke-opacity:0.55612242"
    width="1"
    height="8"
    x="10.389831"
    y="6.3050847" />
  <rect
    style="fill:#ffffff;fill-opacity:1;stroke:none;stroke-width:0.89765638;stroke-miterlimit:4;stroke-dasharray:none;stroke-opacity:0.55612242"
    width="2"
    height="1"
    x="11.389831"
    y="7.0508475" />
  <rect
    style="fill:#ffffff;fill-opacity:1;stroke:none;stroke-width:0.78924179;stroke-miterlimit:4;stroke-dasharray:none;stroke-opacity:0.55612242"
    width="1"
    height="1"
    x="11.389831"
    y="6.3050847" />
</svg>
