<?xml version="1.0" encoding="UTF-8" standalone="no"?>
<svg
   xmlns:dc="http://purl.org/dc/elements/1.1/"
   xmlns:cc="http://creativecommons.org/ns#"
   xmlns:rdf="http://www.w3.org/1999/02/22-rdf-syntax-ns#"
   xmlns:svg="http://www.w3.org/2000/svg"
   xmlns="http://www.w3.org/2000/svg"
   xmlns:xlink="http://www.w3.org/1999/xlink"
   xmlns:sodipodi="http://sodipodi.sourceforge.net/DTD/sodipodi-0.dtd"
   xmlns:inkscape="http://www.inkscape.org/namespaces/inkscape"
   viewBox="0 0 16 16"
   version="1.1"
   id="svg5"
   sodipodi:docname="folder-cloud.svg"
   inkscape:version="0.92.2 (5c3e80d, 2017-08-06)">
  <metadata
     id="metadata9">
    <rdf:RDF>
      <cc:Work
         rdf:about="">
        <dc:format>image/svg+xml</dc:format>
        <dc:type
           rdf:resource="http://purl.org/dc/dcmitype/StillImage" />
        <dc:title></dc:title>
      </cc:Work>
    </rdf:RDF>
  </metadata>
  <sodipodi:namedview
     pagecolor="#ffffff"
     bordercolor="#666666"
     borderopacity="1"
     objecttolerance="10"
     gridtolerance="10"
     guidetolerance="10"
     inkscape:pageopacity="0"
     inkscape:pageshadow="2"
     inkscape:window-width="1544"
     inkscape:window-height="900"
     id="namedview7"
     showgrid="false"
     inkscape:zoom="14.75"
     inkscape:cx="8"
     inkscape:cy="8"
     inkscape:window-x="56"
     inkscape:window-y="0"
     inkscape:window-maximized="1"
     inkscape:current-layer="svg5" />
  <defs
     id="defs3051">
    <linearGradient
       inkscape:collect="always"
       id="linearGradient825">
      <stop
         style="stop-color:#3daee9;stop-opacity:1;"
         offset="0"
         id="stop821" />
      <stop
         style="stop-color:#3daee9;stop-opacity:0;"
         offset="1"
         id="stop823" />
    </linearGradient>
    <style
       type="text/css"
       id="current-color-scheme">
      .ColorScheme-Text {
        color:#4d4d4d;
      }
      </style>
    <radialGradient
       inkscape:collect="always"
       xlink:href="#linearGradient825"
       id="radialGradient829"
       cx="11.084745"
       cy="10.20339"
       fx="11.084745"
       fy="10.20339"
       r="4.262712"
       gradientUnits="userSpaceOnUse"
       gradientTransform="matrix(1.3419483,0,0,1.3419483,-4.5700709,-3.3195407)" />
  </defs>
  <path
     style="fill:currentColor;fill-opacity:1;stroke:none"
     d="M 7.5 2 A 4.5 4.5 0 0 0 3 6.5 A 4.5 4.5 0 0 0 3.0527344 7.15625 A 3 3 0 0 0 1 10 A 3 3 0 0 0 4 13 L 11.5 13 A 3.5 3.5 0 0 0 15 9.5 A 3.5 3.5 0 0 0 11.970703 6.0351562 A 4.5 4.5 0 0 0 7.5 2 z M 7.5 3 A 3.5 3.5 0 0 1 11 6.5 A 3.5 3.5 0 0 1 10.949219 7.0644531 A 2.5 2.5 0 0 1 11.5 7 A 2.5 2.5 0 0 1 14 9.5 A 2.5 2.5 0 0 1 11.5 12 L 4 12 A 2 2 0 0 1 2 10 A 2 2 0 0 1 4 8 A 2 2 0 0 1 4.3574219 8.0332031 A 3.5 3.5 0 0 1 4 6.5 A 3.5 3.5 0 0 1 7.5 3 z "
     id="path4139"
     class="ColorScheme-Text" />
  <circle
     style="fill:#3daee9;fill-opacity:1;stroke:url(#radialGradient829);stroke-width:1.34194827;stroke-miterlimit:4;stroke-dasharray:none;stroke-opacity:0.55612242"
     id="path819"
     cx="10.305083"
     cy="10.372882"
     r="5.0493646" />
  <rect
     style="fill:#ffffff;fill-opacity:1;stroke:none;stroke-width:1.08444154;stroke-miterlimit:4;stroke-dasharray:none;stroke-opacity:0.55612242"
     id="rect2443"
     width="3"
     height="3"
     x="8.3898306"
     y="11.305084" />
  <rect
     style="fill:#ffffff;fill-opacity:1;stroke:none;stroke-width:0.96501118;stroke-miterlimit:4;stroke-dasharray:none;stroke-opacity:0.55612242"
     id="rect2447"
     width="1"
     height="8"
     x="10.389831"
     y="6.3050847" />
  <rect
     style="fill:#ffffff;fill-opacity:1;stroke:none;stroke-width:0.89765638;stroke-miterlimit:4;stroke-dasharray:none;stroke-opacity:0.55612242"
     id="rect2449"
     width="2"
     height="1"
     x="11.389831"
     y="7.0508475" />
  <rect
     style="fill:#ffffff;fill-opacity:1;stroke:none;stroke-width:0.78924179;stroke-miterlimit:4;stroke-dasharray:none;stroke-opacity:0.55612242"
     id="rect2451"
     width="1"
     height="1"
     x="11.389831"
     y="6.3050847" />
</svg>
